<svg width="163" height="39" fill="none" xmlns="http://www.w3.org/2000/svg"><path d="M28.474 15.525c-.481 2.99-1.609 5.586-3.382 7.79-1.773 2.204-3.927 3.851-6.46 4.94-2.533 1.09-5.282 1.634-8.246 1.634-5.497 0-8.246-1.406-8.246-4.218 0-3.04 2.685-9.867 8.056-20.482.253-.506.443-.86.57-1.064-2.001.152-4.04.596-6.118 1.33C2.571 6.19 1.215 7.102.582 8.191c-.025.076-.089.114-.19.114S.24 8.242.24 8.115c0-.152.013-.253.038-.304.963-2.634 2.723-4.243 5.282-4.826 1.165-.253 2.723-.38 4.674-.38h7.79c3.597 0 6.27.976 8.018 2.926 1.748 1.951 2.622 4.434 2.622 7.448 0 .735-.063 1.584-.19 2.546zm-3.99.304c.279-1.165.418-2.28.418-3.344 0-2.457-.722-4.496-2.166-6.118-.81-.886-1.925-1.532-3.344-1.938-1.393-.43-2.698-.646-3.914-.646-1.216 1.596-2.673 4.231-4.37 7.904-1.672 3.648-3.027 7.094-4.066 10.336-.532 1.596-.798 2.888-.798 3.876 0 .963.253 1.596.76 1.9.507.304 1.406.456 2.698.456 3.521 0 6.663-1.178 9.424-3.534 2.761-2.38 4.547-5.345 5.358-8.892zm19.302-2.014 1.825.038c.38 0 .62-.012.722-.038-.71.482-1.736 2.166-3.078 5.054-1.318 2.863-1.977 4.928-1.977 6.194 0 .76.254 1.14.76 1.14.33 0 .773-.215 1.33-.646.583-.43 1.077-.899 1.482-1.406.406-.532.837-1.178 1.292-1.938.482-.76.887-1.418 1.216-1.976.355-.557.558-.836.609-.836.151 0 .227.241.227.722 0 .482-.139.938-.418 1.368-3.14 5.244-5.763 7.866-7.866 7.866-1.418 0-2.127-1.05-2.127-3.154 0-.658.05-1.292.151-1.9-2.38 3.37-4.648 5.054-6.801 5.054-.634 0-1.153-.266-1.558-.798-.38-.532-.57-1.317-.57-2.356 0-1.038.367-2.748 1.102-5.13.734-2.406 1.634-4.382 2.697-5.928.254-.38.52-.608.798-.684.305-.1.862-.152 1.673-.152h1.824c-.634.862-1.318 2.027-2.052 3.496-1.672 3.471-2.508 6.017-2.508 7.638 0 .963.341 1.444 1.026 1.444.709 0 1.545-.67 2.508-2.014.962-1.342 1.988-3.078 3.078-5.206 1.114-2.153 1.76-3.369 1.938-3.648.937-1.469 1.836-2.204 2.697-2.204zm24.1-9.538c-.835.608-1.937 2.318-3.305 5.13a75.077 75.077 0 0 0-3.572 8.854c-1.039 3.091-1.558 5.333-1.558 6.726 0 .811.215 1.216.646 1.216.43 0 .962-.278 1.596-.836.659-.557 1.127-1.026 1.406-1.406.279-.38.646-.95 1.102-1.71.481-.785.887-1.456 1.216-2.014.355-.582.557-.874.608-.874.177 0 .266.241.266.722-.025.887-1.077 2.736-3.154 5.548a14.598 14.598 0 0 1-2.47 2.546c-.963.786-1.837 1.178-2.622 1.178-1.343 0-2.014-1-2.014-3.002 0-1.469.367-3.356 1.102-5.662C55.967 23 54.638 25 53.143 26.697c-1.495 1.698-2.99 2.546-4.484 2.546-1.697 0-2.546-1.165-2.546-3.496 0-1.773.38-3.572 1.14-5.396.785-1.824 1.9-3.369 3.344-4.636 1.444-1.292 3.002-1.938 4.674-1.938 1.697 0 2.862.558 3.496 1.672.71-1.393 1.431-3.002 2.166-4.826.76-1.824 1.254-3.002 1.482-3.534.253-.557.43-.962.532-1.216.127-.253.278-.494.456-.722.279-.354.608-.57.988-.646.405-.1 1.038-.152 1.9-.152.886-.025 1.419-.05 1.596-.076zm-9.31 11.628c-.303-.456-.81-.684-1.52-.684-1.14 0-2.292.583-3.457 1.748a13.904 13.904 0 0 0-2.774 3.99c-.684 1.495-1.026 2.812-1.026 3.952 0 .786.304 1.178.912 1.178 2.052 0 4.674-3.394 7.866-10.184zM79.69 19.25c.152 0 .228.254.228.76 0 .482-.203 1.064-.608 1.748-.405.684-.81 1.33-1.216 1.938-.38.608-.9 1.318-1.558 2.128-.659.811-1.305 1.457-1.938 1.938-1.596 1.166-3.205 1.748-4.826 1.748-1.596 0-2.888-.405-3.876-1.216-.988-.836-1.482-2.102-1.482-3.8 0-2.584.95-4.978 2.85-7.182 1.9-2.204 4.117-3.306 6.65-3.306 1.14 0 2.052.304 2.736.912.684.583 1.026 1.292 1.026 2.128 0 1.42-.671 2.56-2.014 3.42-1.343.862-2.926 1.292-4.75 1.292-1.064 0-1.85-.139-2.356-.418-.481 1.292-.722 2.432-.722 3.42 0 2.128.9 3.192 2.698 3.192 1.064 0 2.153-.405 3.268-1.216 1.14-.836 2.103-1.76 2.888-2.774.81-1.038 1.723-2.52 2.736-4.446.101-.177.19-.266.266-.266zm-4.028-3.002c0-.734-.355-1.102-1.064-1.102-.988 0-2.09.608-3.306 1.824-1.216 1.216-1.824 2.204-1.824 2.964 0 .507.481.76 1.444.76s1.963-.468 3.002-1.406c1.064-.937 1.647-1.95 1.748-3.04zm18.217 5.168c-1.9 3.167-3.622 5.371-5.168 6.612-1.545 1.242-3.546 1.862-6.004 1.862-1.418 0-2.61-.266-3.572-.798-.962-.557-1.444-1.368-1.444-2.432 0-.608.178-1.165.532-1.672.355-.506.836-.76 1.444-.76.634 0 1.039.228 1.216.684-.481.482-.722 1.04-.722 1.672 0 1.267.71 1.9 2.128 1.9.836 0 1.558-.29 2.166-.874.634-.582.95-1.216.95-1.9 0-.709-.152-1.33-.456-1.862-.304-.532-.671-1-1.102-1.406l-1.292-1.216c-1.038-.988-1.558-2.115-1.558-3.382 0-1.292.482-2.368 1.444-3.23.988-.886 2.33-1.33 4.028-1.33 1.064 0 1.964.19 2.698.57.735.38 1.102.976 1.102 1.786 0 .786-.24 1.47-.722 2.052-.481.583-1.14.874-1.976.874-.81 0-1.216-.38-1.216-1.14 0-.177.292-.443.874-.798.583-.354.874-.722.874-1.102 0-.38-.164-.658-.494-.836-.304-.202-.747-.304-1.33-.304-.582 0-1.152.203-1.71.608-.532.406-.798.938-.798 1.596 0 .66.279 1.28.836 1.862a9.174 9.174 0 0 0 1.824 1.482c.659.406 1.267.976 1.824 1.71.558.71.836 1.47.836 2.28 0 .786-.19 1.495-.57 2.128-.354.634-.785 1.14-1.292 1.52 1.419-.608 2.926-2.128 4.522-4.56.152-.202.418-.62.798-1.254.887-1.596 1.38-2.394 1.482-2.394.152 0 .228.241.228.722 0 .456-.126.9-.38 1.33zm16.604.076c-3.116 5.244-5.751 7.866-7.904 7.866-1.495 0-2.242-.86-2.242-2.584 0-2 .798-4.85 2.394-8.55.354-.937.532-1.583.532-1.938 0-.506-.228-.76-.684-.76-.304 0-.824.178-1.558.532-.71.355-1.394.874-2.052 1.558a9.631 9.631 0 0 0-1.672 2.394c-.431.887-.786 1.66-1.064 2.318a30.61 30.61 0 0 0-.798 2.432 36.09 36.09 0 0 1-.76 2.318 41.83 41.83 0 0 0-.646 2.052h-3.686c.684-1.748 1.659-4.534 2.926-8.36 1.292-3.85 2.394-6.865 3.306-9.044.912-2.204 1.798-4.053 2.66-5.548.886-1.52 1.887-2.786 3.002-3.8 1.14-1.013 2.33-1.52 3.572-1.52 1.266 0 1.9.596 1.9 1.786 0 .836-.342 1.938-1.026 3.306-1.47 2.888-3.927 6.232-7.372 10.032 1.368-.988 2.444-1.634 3.23-1.938.81-.304 1.583-.456 2.318-.456 1.444 0 2.166.634 2.166 1.9 0 .507-.089.976-.266 1.406-.178.431-.38.925-.608 1.482-.203.558-.38 1.014-.532 1.368-.127.355-.304.836-.532 1.444a22.842 22.842 0 0 0-.532 1.558c-.33 1.064-.494 1.913-.494 2.546 0 .634.215.95.646.95 1.52 0 3.42-2.204 5.7-6.612.076-.177.164-.266.266-.266.126 0 .19.241.19.722 0 .456-.127.925-.38 1.406zm-4.598-19.684c-.887 0-2.052 1.406-3.496 4.218-1.419 2.812-2.812 6.042-4.18 9.69 3.47-4.078 5.839-7.422 7.106-10.032.709-1.596 1.064-2.634 1.064-3.116 0-.506-.165-.76-.494-.76zm18.79 12.122 1.9.038h.38c-.836.684-1.862 2.42-3.078 5.206-1.216 2.762-1.824 4.776-1.824 6.042 0 .66.228.988.684.988 1.469 0 3.344-2.166 5.624-6.498.101-.177.19-.266.266-.266.152 0 .228.241.228.722 0 .456-.127.9-.38 1.33-3.116 5.244-5.726 7.866-7.828 7.866-1.368 0-2.052-1.05-2.052-3.154 0-1.57.266-3.116.798-4.636-2.888 5.118-5.561 7.676-8.018 7.676-1.698 0-2.546-1.165-2.546-3.496 0-1.773.38-3.572 1.14-5.396.785-1.824 1.9-3.369 3.344-4.636 1.444-1.292 3.027-1.938 4.75-1.938.81 0 1.57.19 2.28.57.709.355 1.178.938 1.406 1.748.278-.582.709-1.089 1.292-1.52.582-.43 1.127-.646 1.634-.646zm-3.154 2.508c-.254-.81-.849-1.216-1.786-1.216-1.672 0-3.294 1.166-4.864 3.496-1.571 2.306-2.356 4.37-2.356 6.194 0 .786.304 1.178.912 1.178.658 0 1.431-.405 2.318-1.216a15.288 15.288 0 0 0 2.394-2.926c1.57-2.482 2.698-4.319 3.382-5.51zm22.179 4.56c-1.52 2.787-3.167 4.953-4.94 6.498-1.774 1.546-3.876 2.318-6.308 2.318s-3.8-.62-4.104-1.862l-2.128 6.65c-.507 1.495-.887 2.458-1.14 2.888-.279.456-.583.748-.912.874-.33.127-.748.19-1.254.19h-1.824c.658-.962 1.988-4.28 3.99-9.956 2.001-5.7 3.318-9.335 3.952-10.906.658-1.57 1.14-2.52 1.444-2.85.608-.608 1.659-.912 3.154-.912h1.14c-.735.507-1.736 2.027-3.002 4.56 2.356-3.14 4.433-4.712 6.232-4.712 1.697 0 2.546 1.166 2.546 3.496 0 1.926-.608 3.902-1.824 5.928-1.216 2.027-2.648 3.598-4.294 4.712h.304c1.038 0 2.09-.418 3.154-1.254a15.4 15.4 0 0 0 2.812-2.774c.43-.557 1.038-1.494 1.824-2.812.785-1.342 1.203-2.014 1.254-2.014.202 0 .304.216.304.646 0 .431-.127.862-.38 1.292zm-7.41-3.99a1.154 1.154 0 0 0-.342-.038c-.532 0-1.115.254-1.748.76-1.039.811-2.141 2.154-3.306 4.028-1.166 1.875-1.748 3.408-1.748 4.598 0 1.191.367 1.786 1.102 1.786 1.317 0 2.748-1.304 4.294-3.914 1.545-2.609 2.318-4.648 2.318-6.118 0-.633-.19-1-.57-1.102zm20.959 2.242c.152 0 .228.254.228.76 0 .482-.203 1.064-.608 1.748-.406.684-.811 1.33-1.216 1.938-.38.608-.9 1.318-1.558 2.128-.659.811-1.305 1.457-1.938 1.938-1.596 1.166-3.205 1.748-4.826 1.748-1.596 0-2.888-.405-3.876-1.216-.988-.836-1.482-2.102-1.482-3.8 0-2.584.95-4.978 2.85-7.182 1.9-2.204 4.116-3.306 6.65-3.306 1.14 0 2.052.304 2.736.912.684.583 1.026 1.292 1.026 2.128 0 1.42-.672 2.56-2.014 3.42-1.343.862-2.926 1.292-4.75 1.292-1.064 0-1.85-.139-2.356-.418-.482 1.292-.722 2.432-.722 3.42 0 2.128.899 3.192 2.698 3.192 1.064 0 2.153-.405 3.268-1.216 1.14-.836 2.102-1.76 2.888-2.774.81-1.038 1.722-2.52 2.736-4.446.101-.177.19-.266.266-.266zm-4.028-3.002c0-.734-.355-1.102-1.064-1.102-.988 0-2.09.608-3.306 1.824-1.216 1.216-1.824 2.204-1.824 2.964 0 .507.481.76 1.444.76.962 0 1.963-.468 3.002-1.406 1.064-.937 1.646-1.95 1.748-3.04zm9.515 11.02c-.279.051-.697.342-1.254.874-.532.532-.887.963-1.064 1.292-1.242-.405-1.862-.924-1.862-1.558 0-.456.266-.899.798-1.33a3.023 3.023 0 0 1 1.9-.646c1.038 0 1.558.317 1.558.95 0 .076-.026.216-.076.418z" fill="#fff"/></svg>