<svg width="24" height="24" fill="none" xmlns="http://www.w3.org/2000/svg"><path fill-rule="evenodd" clip-rule="evenodd" d="M6.483 2.815c-3.671 1.182-5.31 5.19-4.078 9.014.624 1.801 1.64 3.42 2.975 4.747a34.717 34.717 0 0 0 6.005 4.673l.245.147c.236.14.53.138.763-.006l.229-.143a34.695 34.695 0 0 0 5.995-4.665 12.42 12.42 0 0 0 2.977-4.737c1.235-3.837-.41-7.847-4.082-9.03l-.266-.079a6.571 6.571 0 0 0-4.981.62l-.269.158-.263-.158a6.562 6.562 0 0 0-5.25-.54zm4.893 2.04.197.14c.259.186.609.182.864-.009a5.11 5.11 0 0 1 4.628-.78c2.846.917 4.141 4.075 3.143 7.176a10.937 10.937 0 0 1-2.615 4.159l-.528.501a33.23 33.23 0 0 1-4.595 3.574l-.467.294.142.09a33.218 33.218 0 0 1-5.738-4.466 10.942 10.942 0 0 1-2.614-4.168c-.994-3.088.296-6.244 3.14-7.16a5.1 5.1 0 0 1 4.443.648zm4.496 1.629a.732.732 0 0 0-.445 1.392 1.98 1.98 0 0 1 1.363 1.725.731.731 0 0 0 1.457-.122 3.441 3.441 0 0 0-2.375-2.995z" fill="#333"/></svg>