<svg width="28" height="29" fill="none" xmlns="http://www.w3.org/2000/svg"><g clip-path="url(#a)" fill="#fff"><path d="M27.97 8.361c-.065-1.487-.306-2.51-.65-3.396A6.833 6.833 0 0 0 25.7 2.48 6.89 6.89 0 0 0 23.222.868c-.891-.345-1.909-.585-3.396-.651-1.5-.071-1.975-.088-5.776-.088-3.802 0-4.278.017-5.771.082-1.488.066-2.51.307-3.397.651A6.832 6.832 0 0 0 2.4 2.482 6.894 6.894 0 0 0 .785 4.958C.441 5.851.2 6.87.135 8.356.062 9.855.046 10.33.046 14.132c0 3.802.016 4.278.082 5.77.066 1.488.306 2.511.651 3.398.355.94.908 1.783 1.619 2.483a6.89 6.89 0 0 0 2.478 1.613c.891.345 1.909.586 3.397.651 1.493.066 1.969.082 5.77.082 3.802 0 4.278-.016 5.77-.082 1.489-.065 2.512-.306 3.398-.65a7.161 7.161 0 0 0 4.096-4.097c.345-.892.586-1.91.651-3.397.066-1.493.082-1.97.082-5.77 0-3.802-.005-4.278-.07-5.772zM25.45 19.793c-.06 1.368-.29 2.106-.482 2.599a4.645 4.645 0 0 1-2.658 2.658c-.492.191-1.236.421-2.598.481-1.477.066-1.92.082-5.656.082-3.736 0-4.184-.016-5.656-.082-1.367-.06-2.106-.29-2.598-.481a4.31 4.31 0 0 1-1.608-1.045 4.354 4.354 0 0 1-1.045-1.608c-.191-.492-.42-1.236-.481-2.598-.066-1.477-.082-1.92-.082-5.656 0-3.736.016-4.184.082-5.656.06-1.367.29-2.106.481-2.598.225-.607.58-1.16 1.05-1.608.454-.465 1.001-.82 1.609-1.045.492-.191 1.236-.42 2.598-.481 1.477-.066 1.92-.082 5.655-.082 3.742 0 4.185.016 5.656.082 1.368.06 2.106.29 2.599.481.607.224 1.16.58 1.608 1.045.465.454.82 1 1.044 1.608.192.492.422 1.236.482 2.598.065 1.477.082 1.92.082 5.656 0 3.736-.017 4.174-.082 5.65z"/><path d="M14.052 6.94a7.195 7.195 0 0 0-7.193 7.192 7.195 7.195 0 0 0 7.193 7.193 7.194 7.194 0 0 0 7.193-7.193 7.194 7.194 0 0 0-7.193-7.193zm0 11.858a4.667 4.667 0 1 1 .002-9.333 4.667 4.667 0 0 1-.002 9.333zM23.206 6.655a1.68 1.68 0 1 1-3.358 0 1.68 1.68 0 0 1 3.358 0z"/></g><defs><clipPath id="a"><path fill="#fff" transform="translate(0 .13)" d="M0 0h28v28H0z"/></clipPath></defs></svg>