<svg width="28" height="29" fill="none" xmlns="http://www.w3.org/2000/svg"><g clip-path="url(#a)"><path d="M28 5.448c-1.041.456-2.15.76-3.308.906a5.708 5.708 0 0 0 2.526-3.173 11.472 11.472 0 0 1-3.64 1.39 5.739 5.739 0 0 0-9.93 3.925c0 .455.039.893.133 1.31C9.01 9.571 4.786 7.285 1.95 3.8a5.78 5.78 0 0 0-.785 2.901 5.749 5.749 0 0 0 2.55 4.77 5.67 5.67 0 0 1-2.594-.706v.063c0 2.79 1.99 5.106 4.599 5.64a5.727 5.727 0 0 1-1.505.19c-.368 0-.739-.022-1.087-.099.744 2.273 2.854 3.945 5.364 3.999a11.534 11.534 0 0 1-7.117 2.448c-.471 0-.923-.02-1.374-.079a16.16 16.16 0 0 0 8.806 2.576c10.563 0 16.338-8.75 16.338-16.334 0-.254-.009-.499-.021-.742A11.452 11.452 0 0 0 28 5.448z" fill="#fff"/></g><defs><clipPath id="a"><path fill="#fff" transform="translate(0 .13)" d="M0 0h28v28H0z"/></clipPath></defs></svg>